<svg width="17" height="17" viewBox="0 0 17 17" fill="none" xmlns="http://www.w3.org/2000/svg">
<path d="M7.64934 1.18718C7.86296 0.542804 7.96973 0.220624 8.12771 0.131329C8.26438 0.0540426 8.42891 0.0540426 8.56567 0.131329C8.72356 0.220624 8.83033 0.542804 9.04395 1.18718L10.4561 5.44717C10.5169 5.63057 10.5473 5.72227 10.6021 5.79055C10.6504 5.85088 10.7122 5.8979 10.7819 5.92751C10.8607 5.96103 10.9532 5.96301 11.1383 5.96697L15.4384 6.05886C16.0888 6.07275 16.414 6.07971 16.5439 6.20962C16.6562 6.32205 16.707 6.48619 16.6792 6.64639C16.647 6.83151 16.3878 7.03752 15.8694 7.44974L12.4421 10.1744C12.2945 10.2917 12.2208 10.3504 12.1757 10.426C12.136 10.493 12.1124 10.5691 12.1071 10.6476C12.1011 10.7367 12.1278 10.8296 12.1815 11.0154L13.427 15.3322C13.6153 15.9852 13.7095 16.3117 13.6318 16.4812C13.5645 16.628 13.4314 16.7294 13.2775 16.7512C13.0996 16.7763 12.8327 16.5815 12.2986 16.1918L8.76832 13.6158C8.61633 13.5049 8.54039 13.4495 8.4578 13.4279C8.3848 13.4089 8.30849 13.4089 8.23559 13.4279C8.153 13.4495 8.07696 13.5049 7.92497 13.6158L4.39469 16.1918C3.86068 16.5815 3.59368 16.7763 3.41586 16.7512C3.26197 16.7294 3.12881 16.628 3.06154 16.4812C2.98383 16.3117 3.07803 15.9852 3.26641 15.3322L4.51186 11.0154C4.56548 10.8296 4.59228 10.7367 4.58625 10.6476C4.58092 10.5691 4.55735 10.493 4.51758 10.426C4.47258 10.3504 4.3988 10.2917 4.25126 10.1744L0.823962 7.44974C0.305536 7.03752 0.0463234 6.83151 0.0141455 6.64639C-0.0137136 6.48619 0.0371509 6.32205 0.149483 6.20962C0.279264 6.07971 0.604485 6.07276 1.25492 6.05886L5.55496 5.96697C5.74007 5.96301 5.83264 5.96103 5.9115 5.92751C5.98116 5.8979 6.04288 5.85088 6.09126 5.79055C6.14604 5.72227 6.17644 5.63057 6.23723 5.44717L7.64934 1.18718Z" fill="#FFD600"/>
</svg>
