<svg width="31" height="26" viewBox="0 0 31 26" fill="none" xmlns="http://www.w3.org/2000/svg">
<path d="M29.0183 0.333444L1.44124 10.8334C-0.419783 11.5001 -0.419783 12.6668 1.10288 13.0001L8.03944 15.1668L10.7464 23.1668C11.0848 24.0001 10.9156 24.3334 11.7615 24.3334C12.4382 24.3334 12.7766 24.0001 13.115 23.6668C13.2842 23.5001 14.8068 22.0001 16.4987 20.3334L23.6044 25.5001C24.9579 26.1668 25.8038 25.8334 26.1422 24.3334L30.8793 2.50011C31.3869 0.666777 30.2026 -0.333223 29.0183 0.333444ZM25.4654 5.33344L12.269 17.1668L11.7615 22.6668L9.05454 14.6668L24.6195 5.00011C25.2962 4.50011 25.973 4.83344 25.4654 5.33344Z" fill="white"/>
</svg>
