<svg width="127" height="76" viewBox="0 0 127 76" fill="none" xmlns="http://www.w3.org/2000/svg">
<path d="M18.2298 31V7.90722H28.1976C29.9115 7.90722 31.4112 8.21918 32.6966 8.84311C33.9821 9.46703 34.9819 10.3653 35.696 11.538C36.4101 12.7107 36.7672 14.1164 36.7672 15.7552C36.7672 17.4089 36.3989 18.8034 35.6622 19.9385C34.933 21.0736 33.9069 21.9305 32.5839 22.5093C31.2684 23.0882 29.7311 23.3776 27.9721 23.3776H22.0185V18.5064H26.7092C27.4459 18.5064 28.0736 18.4162 28.5923 18.2358C29.1185 18.0479 29.5206 17.751 29.7988 17.345C30.0844 16.9391 30.2272 16.4091 30.2272 15.7552C30.2272 15.0936 30.0844 14.5562 29.7988 14.1427C29.5206 13.7218 29.1185 13.4136 28.5923 13.2181C28.0736 13.0151 27.4459 12.9137 26.7092 12.9137H24.4992V31H18.2298ZM31.7608 20.4008L37.534 31H30.7234L25.0855 20.4008H31.7608ZM61.8107 19.4536C61.8107 22.0245 61.3108 24.1932 60.311 25.9597C59.3112 27.7188 57.9619 29.053 56.263 29.9626C54.5641 30.8647 52.6698 31.3157 50.58 31.3157C48.4752 31.3157 46.5734 30.8609 44.8745 29.9514C43.1831 29.0343 41.8375 27.6962 40.8378 25.9372C39.8455 24.1706 39.3493 22.0095 39.3493 19.4536C39.3493 16.8827 39.8455 14.7178 40.8378 12.9588C41.8375 11.1922 43.1831 9.85792 44.8745 8.95586C46.5734 8.04628 48.4752 7.59149 50.58 7.59149C52.6698 7.59149 54.5641 8.04628 56.263 8.95586C57.9619 9.85792 59.3112 11.1922 60.311 12.9588C61.3108 14.7178 61.8107 16.8827 61.8107 19.4536ZM55.3609 19.4536C55.3609 18.0704 55.1768 16.9053 54.8084 15.9581C54.4476 15.0034 53.9101 14.2818 53.196 13.7932C52.4894 13.297 51.6174 13.049 50.58 13.049C49.5426 13.049 48.6669 13.297 47.9528 13.7932C47.2461 14.2818 46.7087 15.0034 46.3403 15.9581C45.9795 16.9053 45.7991 18.0704 45.7991 19.4536C45.7991 20.8368 45.9795 22.0057 46.3403 22.9604C46.7087 23.9075 47.2461 24.6292 47.9528 25.1253C48.6669 25.6139 49.5426 25.8582 50.58 25.8582C51.6174 25.8582 52.4894 25.6139 53.196 25.1253C53.9101 24.6292 54.4476 23.9075 54.8084 22.9604C55.1768 22.0057 55.3609 20.8368 55.3609 19.4536ZM64.7114 7.90722H72.5142L77.8815 20.9871H78.1521L83.5194 7.90722H91.3222V31H85.1882V17.6495H85.0078L79.866 30.8196H76.1676L71.0258 17.5593H70.8454V31H64.7114V7.90722Z" fill="black"/>
<path d="M96.0023 7.8241L119.085 7.8241L119.085 9.18789L109.449 9.18789L109.449 9.32314C110.192 9.59365 110.876 9.97686 111.5 10.4728C112.124 10.9687 112.623 11.5849 112.999 12.3212C113.382 13.0576 113.574 13.918 113.574 14.9023C113.574 16.2924 113.187 17.5059 112.413 18.5428C111.646 19.5798 110.587 20.3837 109.234 20.9548C107.889 21.5259 106.349 21.8114 104.613 21.8114C102.863 21.8114 101.311 21.5259 99.9584 20.9548C98.6134 20.3837 97.5577 19.5835 96.7912 18.5541C96.0248 17.5247 95.6416 16.3112 95.6416 14.9136C95.6416 13.9292 95.8294 13.0689 96.2051 12.3325C96.5883 11.5961 97.0918 10.98 97.7154 10.4841C98.3466 9.98813 99.0342 9.60116 99.778 9.32314L99.778 9.16535L96.0023 9.16535L96.0023 7.8241ZM104.625 9.17662C103.152 9.17662 101.833 9.39828 100.668 9.84161C99.5113 10.2924 98.5946 10.9387 97.9183 11.7802C97.2496 12.6218 96.9152 13.6287 96.9152 14.8008C96.9152 15.9881 97.2533 17.0024 97.9296 17.844C98.6134 18.6856 99.5376 19.328 100.702 19.7714C101.867 20.2222 103.174 20.4476 104.625 20.4476C106.075 20.4476 107.378 20.2222 108.536 19.7714C109.693 19.328 110.606 18.6856 111.274 17.844C111.951 17.0024 112.289 15.9881 112.289 14.8008C112.289 13.6287 111.954 12.6218 111.286 11.7802C110.624 10.9387 109.715 10.2925 108.558 9.84161C107.409 9.39828 106.097 9.17662 104.625 9.17662ZM95.6416 32.532C95.6416 31.1044 96.0248 29.8345 96.7912 28.7224C97.5652 27.6103 98.6284 26.735 99.9809 26.0963C101.333 25.4576 102.874 25.1382 104.602 25.1382C106.338 25.1382 107.878 25.4576 109.223 26.0963C110.576 26.735 111.639 27.6104 112.413 28.7224C113.187 29.8345 113.574 31.1044 113.574 32.532C113.574 33.9597 113.187 35.2295 112.413 36.3416C111.639 37.4537 110.576 38.3291 109.223 38.9678C107.871 39.6064 106.33 39.9258 104.602 39.9258C102.874 39.9258 101.333 39.6064 99.9809 38.9678C98.6284 38.3291 97.5652 37.4537 96.7912 36.3416C96.0248 35.2295 95.6416 33.9597 95.6416 32.532ZM96.9152 32.532C96.9152 33.7418 97.2571 34.7975 97.9409 35.6992C98.6246 36.6084 99.5489 37.3109 100.714 37.8068C101.878 38.3103 103.174 38.562 104.602 38.562C106.03 38.562 107.322 38.3103 108.479 37.8068C109.644 37.3034 110.568 36.6008 111.252 35.6992C111.943 34.7975 112.289 33.7418 112.289 32.532C112.289 31.3223 111.943 30.2665 111.252 29.3649C110.568 28.4632 109.644 27.7606 108.479 27.2572C107.322 26.7538 106.03 26.502 104.602 26.502C103.174 26.502 101.878 26.75 100.714 27.2459C99.5489 27.7494 98.6246 28.4519 97.9409 29.3536C97.2571 30.2628 96.9152 31.3223 96.9152 32.532ZM95.6416 50.6379C95.6416 49.2103 96.0248 47.9404 96.7912 46.8283C97.5652 45.7163 98.6284 44.8409 99.9809 44.2022C101.333 43.5635 102.874 43.2442 104.602 43.2442C106.338 43.2442 107.878 43.5635 109.223 44.2022C110.576 44.8409 111.639 45.7163 112.413 46.8284C113.187 47.9404 113.574 49.2103 113.574 50.6379C113.574 52.0656 113.187 53.3355 112.413 54.4475C111.639 55.5596 110.576 56.435 109.223 57.0737C107.871 57.7124 106.33 58.0317 104.602 58.0317C102.874 58.0317 101.333 57.7124 99.9809 57.0737C98.6284 56.435 97.5652 55.5596 96.7912 54.4475C96.0248 53.3355 95.6416 52.0656 95.6416 50.6379ZM96.9152 50.6379C96.9152 51.8477 97.2571 52.9034 97.9409 53.8051C98.6246 54.7143 99.5489 55.4168 100.714 55.9128C101.878 56.4162 103.174 56.6679 104.602 56.6679C106.03 56.6679 107.322 56.4162 108.479 55.9128C109.644 55.4093 110.568 54.7068 111.252 53.8051C111.943 52.9034 112.289 51.8477 112.289 50.6379C112.289 49.4282 111.943 48.3725 111.252 47.4708C110.568 46.5691 109.644 45.8666 108.479 45.3631C107.322 44.8597 106.03 44.608 104.602 44.608C103.174 44.608 101.878 44.8559 100.714 45.3518C99.5489 45.8553 98.6246 46.5578 97.9409 47.4595C97.2571 48.3687 96.9152 49.4282 96.9152 50.6379ZM102.765 63.5029L104.737 63.4803L104.737 63.841L113.315 72.4971L113.315 74.2892L105.425 66.3432L105.368 66.2079L102.765 63.5029ZM96.0023 62.3081L119.085 62.3081L119.085 63.6832L96.0023 63.6832L96.0023 62.3081ZM96.0023 72.8916L105.233 65.588L106.146 66.5798L96.0023 74.6499L96.0023 72.8916Z" fill="black"/>
<rect x="18" y="36" width="73" height="38" fill="black"/>
</svg>
