<svg width="24" height="40" viewBox="0 0 24 40" fill="none" xmlns="http://www.w3.org/2000/svg">
<path d="M10.0326 28.1748C6.93412 27.8514 4.14038 27.0877 1.7485 25.2155C1.45172 24.9826 1.1453 24.758 0.874468 24.4979C-0.17245 23.4916 -0.277937 22.3391 0.550472 21.1515C1.25916 20.1351 2.44882 19.8632 3.68536 20.4468C3.9248 20.5599 4.15294 20.7011 4.37145 20.8528C8.82912 23.9181 14.9528 24.0027 19.4272 20.9906C19.8705 20.6504 20.3444 20.3731 20.8936 20.2315C21.9614 19.9571 22.9573 20.3496 23.5303 21.2847C24.185 22.3525 24.1767 23.3948 23.37 24.2239C22.1326 25.4949 20.6445 26.4145 18.991 27.0563C17.4276 27.6629 15.7151 27.9683 14.0202 28.1711C14.2759 28.4497 14.3965 28.5866 14.5564 28.7475C16.8579 31.0617 19.1694 33.3662 21.4633 35.6875C22.2448 36.4785 22.4081 37.4592 21.9778 38.3792C21.5072 39.3846 20.454 40.0461 19.4214 39.9753C18.7671 39.9301 18.2568 39.6041 17.8035 39.1471C16.0667 37.398 14.2973 35.6813 12.5957 33.8991C12.1005 33.3809 11.8623 33.4789 11.4253 33.9289C9.67804 35.729 7.90234 37.5015 6.11617 39.264C5.31414 40.0553 4.35973 40.1978 3.4296 39.7457C2.44087 39.2661 1.81171 38.256 1.86027 37.2409C1.89376 36.5543 2.23115 36.0298 2.70207 35.5593C4.97967 33.2833 7.251 31.0014 9.52315 28.7215C9.67343 28.5699 9.81366 28.409 10.0326 28.1748Z" fill="white"/>
<path d="M11.9197 20.2466C6.39214 20.2277 1.85954 15.6417 1.89177 10.1009C1.92359 4.49895 6.45911 -0.0154607 12.0411 3.9797e-05C17.6345 0.0151213 22.1239 4.59446 22.0959 10.2546C22.0674 15.7841 17.5034 20.2659 11.9197 20.2466ZM16.9434 10.1143C16.9337 7.36318 14.7445 5.17301 12.001 5.17049C9.23443 5.16756 7.02548 7.39753 7.04683 10.1738C7.06734 12.9144 9.27545 15.0891 12.0265 15.0791C14.7692 15.0694 16.9526 12.865 16.9434 10.1143Z" fill="white"/>
</svg>
