<svg width="43" height="43" viewBox="0 0 43 43" fill="none" xmlns="http://www.w3.org/2000/svg">
<path fill-rule="evenodd" clip-rule="evenodd" d="M34.9704 38.0055H7.25942C5.76793 38.0055 4.66655 36.5338 5.22909 35.1804C7.83919 28.9221 13.9711 25.337 21.1139 25.337C28.2588 25.337 34.3907 28.9221 37.0008 35.1804C37.5633 36.5338 36.4619 38.0055 34.9704 38.0055ZM12.4926 12.6685C12.4926 8.01068 16.3614 4.2228 21.1139 4.2228C25.8685 4.2228 29.7352 8.01068 29.7352 12.6685C29.7352 17.3263 25.8685 21.1141 21.1139 21.1141C16.3614 21.1141 12.4926 17.3263 12.4926 12.6685ZM42.1348 37.2369C40.5678 30.1446 35.6666 24.9104 29.2157 22.5351C32.6341 19.8388 34.6278 15.4787 33.8949 10.7047C33.0457 5.16649 28.3428 0.734724 22.6657 0.0886306C14.8289 -0.804499 8.18189 5.17083 8.18189 12.6685C8.18189 16.659 10.07 20.2146 13.0141 22.5351C6.56109 24.9104 1.66203 30.1446 0.092953 37.2369C-0.476053 39.8149 1.64479 42.2283 4.33679 42.2283H37.8909C40.5851 42.2283 42.7059 39.8149 42.1348 37.2369Z" fill="black"/>
</svg>
