<svg width="40" height="24" viewBox="0 0 40 24" fill="none" xmlns="http://www.w3.org/2000/svg">
<path d="M35.6039 16.5959C35.6039 16.5959 38.8379 19.7899 39.6379 21.2679C39.6535 21.2892 39.6656 21.3129 39.6739 21.3379C39.9999 21.8839 40.0799 22.3119 39.9199 22.6279C39.6499 23.1499 38.7359 23.4119 38.4259 23.4339H32.7099C32.3119 23.4339 31.4839 23.3299 30.4759 22.6339C29.7059 22.0959 28.9399 21.2099 28.1979 20.3439C27.0899 19.0579 26.1319 17.9419 25.1619 17.9419C25.0394 17.9417 24.9177 17.9619 24.8019 18.0019C24.0679 18.2339 23.1359 19.2799 23.1359 22.0659C23.1359 22.9379 22.4479 23.4339 21.9659 23.4339H19.3479C18.4559 23.4339 13.8119 23.1219 9.69394 18.7799C4.64794 13.4639 0.115936 2.79992 0.071936 2.70592C-0.210064 2.01592 0.381936 1.63992 1.02194 1.63992H6.79394C7.56794 1.63992 7.81993 2.10792 7.99593 2.52792C8.19993 3.00992 8.95594 4.93792 10.1959 7.10392C12.2039 10.6279 13.4379 12.0619 14.4239 12.0619C14.6092 12.0625 14.7913 12.0142 14.9519 11.9219C16.2399 11.2139 15.9999 6.61392 15.9399 5.66592C15.9399 5.48192 15.9379 3.61192 15.2779 2.70792C14.8059 2.05992 14.0019 1.80792 13.5159 1.71592C13.6459 1.52792 13.9219 1.23992 14.2759 1.06992C15.1579 0.629918 16.7519 0.565918 18.3339 0.565918H19.2119C20.9279 0.589918 21.3719 0.699918 21.9959 0.857918C23.2519 1.15792 23.2759 1.97192 23.1659 4.74392C23.1339 5.53592 23.0999 6.42792 23.0999 7.47792C23.0999 7.70192 23.0899 7.95192 23.0899 8.20592C23.0519 9.62792 23.0019 11.2299 24.0059 11.8879C24.1362 11.969 24.2865 12.012 24.4399 12.0119C24.7879 12.0119 25.8299 12.0119 28.6559 7.16192C29.8959 5.01992 30.8559 2.49392 30.9219 2.30392C30.9779 2.19792 31.1459 1.89992 31.3499 1.77992C31.4951 1.70271 31.6576 1.66414 31.8219 1.66792H38.6119C39.3519 1.66792 39.8539 1.77992 39.9519 2.05992C40.1159 2.51392 39.9199 3.89992 36.8199 8.09192C36.2979 8.78992 35.8399 9.39392 35.4379 9.92192C32.6279 13.6099 32.6279 13.7959 35.6039 16.5959Z" fill="white"/>
</svg>
