<svg width="40" height="28" viewBox="0 0 40 28" fill="none" xmlns="http://www.w3.org/2000/svg">
<path fill-rule="evenodd" clip-rule="evenodd" d="M15.9769 19.1722V7.9486C19.9613 9.82346 23.0472 11.6346 26.6969 13.5873C23.6867 15.2567 19.9613 17.1298 15.9769 19.1722ZM38.182 2.36657C37.4947 1.46105 36.3233 0.756178 35.0762 0.522818C31.4105 -0.173282 8.54197 -0.175262 4.8783 0.522818C3.87822 0.710298 2.98767 1.16346 2.22267 1.86754C-1.00073 4.85934 0.00933236 20.9034 0.786294 23.5023C1.11301 24.6272 1.53538 25.4385 2.0673 25.9711C2.75262 26.6751 3.69093 27.1599 4.76872 27.3773C7.78691 28.0016 23.3361 28.3507 35.0124 27.4711C36.0882 27.2836 37.0405 26.7832 37.7915 26.0492C40.7719 23.0693 40.5687 6.12427 38.182 2.36657Z" fill="white"/>
</svg>
