<svg width="26" height="20" viewBox="0 0 26 20" fill="none" xmlns="http://www.w3.org/2000/svg">
<path fill-rule="evenodd" clip-rule="evenodd" d="M24 4.52941C24 3.85338 22.855 3.61292 22.0975 3.45384C22.0279 3.43922 21.9616 3.42529 21.8997 3.41178C20.9537 3.20508 19.6102 3 18 3C16.2762 3 14.8549 3.43894 13.8789 3.86546C13.7296 3.9307 13.5726 4.02082 13.4307 4.10227C13.2433 4.20988 13.0823 4.30236 13 4.30236C12.9177 4.30236 12.7567 4.20988 12.5693 4.10227C12.4274 4.02082 12.2704 3.9307 12.1211 3.86546C11.1451 3.43894 9.72378 3 8 3C6.38978 3 5.0463 3.20508 4.10028 3.41178C4.04079 3.42477 3.97705 3.43819 3.91016 3.45228C3.156 3.61108 2 3.8545 2 4.52941V14.4706C2 14.7356 2.17945 14.9817 2.47427 15.1211C2.94329 15.3427 3.56224 15.1487 4.11074 14.9768C4.30209 14.9168 4.48487 14.8595 4.64972 14.8235C5.4537 14.6478 6.61022 14.4706 8 14.4706C9.2613 14.4706 10.2055 14.7888 10.9134 15.1219C11.0952 15.2075 11.279 15.3166 11.4676 15.4285C11.9338 15.7054 12.4298 16 13 16C13.5718 16 14.0653 15.7065 14.5307 15.4298C14.7195 15.3174 14.9037 15.2079 15.0866 15.1219C15.7945 14.7888 16.7387 14.4706 18 14.4706C19.3898 14.4706 20.5463 14.6478 21.3503 14.8235C21.5227 14.8612 21.7099 14.9216 21.9042 14.9844C22.4443 15.1588 23.0393 15.351 23.5257 15.1211C23.8205 14.9817 24 14.7356 24 14.4706V4.52941ZM4.33252 4.95573C4.13163 5.00476 4 5.14942 4 5.31068V12.864C4 13.1194 4.32089 13.3031 4.64547 13.2433C5.53577 13.0794 6.67777 12.9412 8 12.9412C9.76309 12.9412 11.0794 13.3995 12 13.8375V5.64257C11.7989 5.52042 11.5037 5.35717 11.1289 5.19336C10.3549 4.85518 9.27622 4.52941 8 4.52941C6.41509 4.52941 5.12989 4.76109 4.33252 4.95573ZM18 12.9412C16.2369 12.9412 14.9206 13.3995 14 13.8375V5.64257C14.2011 5.52042 14.4963 5.35717 14.8711 5.19336C15.6451 4.85518 16.7238 4.52941 18 4.52941C19.5849 4.52941 20.8701 4.76109 21.6675 4.95573C21.8684 5.00476 22 5.14942 22 5.31068V12.864C22 13.1194 21.6791 13.3031 21.3545 13.2433C20.4642 13.0794 19.3222 12.9412 18 12.9412Z" fill="white"/>
<path d="M3.08761 16.8065C2.86184 16.4285 3.08749 15.9848 3.59159 15.8155C4.05988 15.6594 4.54469 15.5282 5.03229 15.4109C5.84127 15.2162 6.95983 15 8.00084 15C9.16787 15 10.164 15.4717 10.8859 15.8135C10.9229 15.8311 10.9593 15.8483 10.9949 15.8651C11.836 16.2616 12.4018 16.5 13.0014 16.5C13.6004 16.5 14.1628 16.2622 15.0029 15.8653C15.0374 15.8491 15.0725 15.8324 15.1083 15.8154C15.8309 15.4727 16.8276 15 18.002 15C19.0487 15 20.167 15.2161 20.9756 15.411C21.7017 15.5861 22.2404 15.7591 22.3788 15.8047C22.8848 15.9726 23.147 16.4207 22.9144 16.8079C22.6893 17.1829 22.0884 17.3494 21.5899 17.1832C21.1907 17.0512 20.7785 16.9391 20.3633 16.839C19.6164 16.6589 18.7345 16.5 18.002 16.5C17.4429 16.5 16.9056 16.739 16.0087 17.1631C15.2652 17.5147 14.2389 18 13.0014 18C11.7632 18 10.7335 17.5141 9.98793 17.1622C9.08922 16.738 8.55316 16.5 8.00084 16.5C7.27454 16.5 6.39287 16.6588 5.64343 16.8391C5.22589 16.9396 4.8102 17.0513 4.40891 17.1846C3.90485 17.3537 3.31333 17.1845 3.08761 16.8065Z" fill="white"/>
</svg>
