<svg width="47" height="26" viewBox="0 0 47 26" fill="none" xmlns="http://www.w3.org/2000/svg">
<path fill-rule="evenodd" clip-rule="evenodd" d="M46.7692 3.75416C46.7692 2.44757 44.3471 1.98283 42.7447 1.67536C42.5974 1.64712 42.4572 1.62019 42.3262 1.59408C40.3251 1.19458 37.4831 0.798218 34.0769 0.798218C30.4304 0.798218 27.4238 1.64657 25.3592 2.47093C25.0433 2.59701 24.7112 2.77119 24.411 2.92861C24.0146 3.13659 23.674 3.31532 23.4999 3.31532C23.3258 3.31532 22.9853 3.13659 22.5888 2.92861C22.2887 2.77119 21.9566 2.59701 21.6407 2.47093C19.5761 1.64657 16.5695 0.798218 12.923 0.798218C9.51679 0.798218 6.67481 1.19458 4.67361 1.59408C4.54777 1.61919 4.41293 1.64512 4.27144 1.67235C2.6761 1.97928 0.230713 2.44973 0.230713 3.75416V22.9678C0.230713 23.4801 0.610319 23.9557 1.23398 24.2251C2.22613 24.6534 3.53545 24.2785 4.69574 23.9462C5.10052 23.8302 5.48717 23.7195 5.83589 23.6499C7.53662 23.3104 9.9831 22.9678 12.923 22.9678C15.5912 22.9678 17.5886 23.5828 19.086 24.2266C19.4706 24.392 19.8594 24.6029 20.2583 24.8192C21.2445 25.3544 22.2938 25.9237 23.4999 25.9237C24.7095 25.9237 25.7535 25.3565 26.738 24.8216C27.1373 24.6045 27.527 24.3928 27.9139 24.2266C29.4114 23.5828 31.4087 22.9678 34.0769 22.9678C37.0168 22.9678 39.4633 23.3104 41.164 23.6499C41.5287 23.7227 41.9247 23.8395 42.3358 23.9608C43.4783 24.298 44.7369 24.6694 45.7658 24.2251C46.3895 23.9557 46.7692 23.4801 46.7692 22.9678V3.75416ZM5.16489 4.57811C4.73993 4.67288 4.46148 4.95247 4.46148 5.26414V19.8627C4.46148 20.3562 5.14029 20.7114 5.8269 20.5958C7.71023 20.2789 10.126 20.0118 12.923 20.0118C16.6526 20.0118 19.4371 20.8977 21.3846 21.7442V5.9056C20.9592 5.66951 20.3347 5.35399 19.5418 5.03739C17.9046 4.38378 15.6227 3.75416 12.923 3.75416C9.57033 3.75416 6.85163 4.20194 5.16489 4.57811ZM34.0769 20.0118C30.3472 20.0118 27.5628 20.8977 25.6153 21.7442V5.9056C26.0407 5.66951 26.6652 5.35399 27.458 5.03739C29.0954 4.38378 31.3772 3.75416 34.0769 3.75416C37.4295 3.75416 40.1482 4.20194 41.835 4.57811C42.26 4.67288 42.5384 4.95247 42.5384 5.26414V19.8627C42.5384 20.3562 41.8596 20.7114 41.1729 20.5958C39.2896 20.2789 36.8738 20.0118 34.0769 20.0118Z" fill="black"/>
</svg>
