<svg width="192" height="131" viewBox="0 0 192 131" fill="none" xmlns="http://www.w3.org/2000/svg">
<path d="M2.69761 54V13.9974H19.9643C22.9333 13.9974 25.5311 14.5378 27.7578 15.6186C29.9845 16.6994 31.7164 18.2555 32.9535 20.2869C34.1905 22.3183 34.809 24.7533 34.809 27.5921C34.809 30.4568 34.171 32.8723 32.8949 34.8386C31.6318 36.8049 29.8543 38.2894 27.5625 39.292C25.2837 40.2947 22.6208 40.796 19.5737 40.796H9.26053V32.358H17.3861C18.6622 32.358 19.7495 32.2017 20.648 31.8892C21.5595 31.5637 22.2562 31.0493 22.738 30.3461C23.2328 29.643 23.4802 28.7249 23.4802 27.5921C23.4802 26.4462 23.2328 25.5151 22.738 24.7989C22.2562 24.0697 21.5595 23.5358 20.648 23.1972C19.7495 22.8457 18.6622 22.6699 17.3861 22.6699H13.5577V54H2.69761ZM26.1366 35.6394L36.1373 54H24.3396L14.5734 35.6394H26.1366ZM78.1907 33.9987C78.1907 38.4521 77.3248 42.2089 75.5929 45.269C73.861 48.316 71.5236 50.6274 68.5807 52.203C65.6378 53.7656 62.3564 54.5469 58.7364 54.5469C55.0903 54.5469 51.7958 53.7591 48.8529 52.1835C45.923 50.5948 43.5922 48.277 41.8603 45.2299C40.1414 42.1698 39.282 38.4261 39.282 33.9987C39.282 29.5453 40.1414 25.7951 41.8603 22.748C43.5922 19.6879 45.923 17.3766 48.8529 15.814C51.7958 14.2383 55.0903 13.4505 58.7364 13.4505C62.3564 13.4505 65.6378 14.2383 68.5807 15.814C71.5236 17.3766 73.861 19.6879 75.5929 22.748C77.3248 25.7951 78.1907 29.5453 78.1907 33.9987ZM67.0181 33.9987C67.0181 31.6027 66.6991 29.5844 66.061 27.9436C65.436 26.2899 64.505 25.0398 63.2679 24.1934C62.0439 23.334 60.5333 22.9043 58.7364 22.9043C56.9394 22.9043 55.4223 23.334 54.1853 24.1934C52.9612 25.0398 52.0302 26.2899 51.3921 27.9436C50.7671 29.5844 50.4546 31.6027 50.4546 33.9987C50.4546 36.3947 50.7671 38.4196 51.3921 40.0733C52.0302 41.7141 52.9612 42.9641 54.1853 43.8236C55.4223 44.67 56.9394 45.0932 58.7364 45.0932C60.5333 45.0932 62.0439 44.67 63.2679 43.8236C64.505 42.9641 65.436 41.7141 66.061 40.0733C66.6991 38.4196 67.0181 36.3947 67.0181 33.9987ZM83.2155 13.9974H96.7319L106.029 36.6551H106.498L115.796 13.9974H129.312V54H118.686V30.8735H118.374L109.467 53.6875H103.06L94.1537 30.7173H93.8411V54H83.2155V13.9974Z" fill="white"/>
<path d="M139 13.1921L178.986 13.1921L178.986 15.5546L162.292 15.5546L162.292 15.7889C163.581 16.2574 164.765 16.9213 165.846 17.7803C166.926 18.6394 167.792 19.7067 168.442 20.9823C169.106 22.2579 169.438 23.7482 169.438 25.4534C169.438 27.8613 168.768 29.9635 167.427 31.7597C166.1 33.5559 164.264 34.9486 161.921 35.9379C159.592 36.9271 156.923 37.4217 153.916 37.4217C150.884 37.4217 148.196 36.9271 145.853 35.9379C143.523 34.9486 141.694 33.5624 140.367 31.7792C139.039 29.996 138.375 27.8939 138.375 25.4729C138.375 23.7678 138.701 22.2774 139.351 21.0018C140.015 19.7262 140.887 18.6589 141.968 17.7999C143.061 16.9408 144.252 16.2705 145.541 15.7889L145.541 15.5155L139 15.5155L139 13.1921ZM153.936 15.5351C151.385 15.5351 149.101 15.919 147.083 16.687C145.079 17.4679 143.491 18.5873 142.319 20.0451C141.161 21.503 140.581 23.2471 140.581 25.2776C140.581 27.3342 141.167 29.0914 142.339 30.5492C143.523 32.007 145.124 33.1199 147.142 33.8878C149.159 34.6688 151.424 35.0593 153.936 35.0593C156.448 35.0593 158.706 34.6688 160.711 33.8878C162.715 33.1199 164.297 32.007 165.455 30.5492C166.627 29.0914 167.212 27.3342 167.212 25.2776C167.212 23.2471 166.633 21.503 165.475 20.0451C164.329 18.5873 162.754 17.4679 160.75 16.687C158.758 15.919 156.487 15.5351 153.936 15.5351ZM138.375 55.9925C138.375 53.5194 139.039 51.3197 140.367 49.3933C141.707 47.4669 143.549 45.9506 145.892 44.8442C148.235 43.7378 150.903 43.1846 153.897 43.1846C156.904 43.1846 159.572 43.7378 161.902 44.8442C164.245 45.9506 166.087 47.4669 167.427 49.3933C168.768 51.3197 169.438 53.5195 169.438 55.9925C169.438 58.4656 168.768 60.6653 167.427 62.5917C166.087 64.5181 164.245 66.0345 161.902 67.1408C159.559 68.2472 156.891 68.8004 153.897 68.8004C150.903 68.8004 148.235 68.2472 145.892 67.1408C143.549 66.0345 141.707 64.5181 140.367 62.5917C139.039 60.6653 138.375 58.4656 138.375 55.9925ZM140.581 55.9925C140.581 58.0881 141.174 59.9169 142.358 61.4788C143.543 63.0538 145.144 64.2708 147.161 65.1299C149.179 66.0019 151.424 66.438 153.897 66.438C156.37 66.438 158.609 66.0019 160.613 65.1299C162.631 64.2578 164.232 63.0408 165.416 61.4788C166.614 59.9169 167.212 58.0881 167.212 55.9925C167.212 53.8969 166.614 52.0681 165.416 50.5062C164.232 48.9443 162.631 47.7273 160.613 46.8552C158.609 45.9831 156.37 45.5471 153.897 45.5471C151.424 45.5471 149.179 45.9766 147.161 46.8357C145.144 47.7077 143.543 48.9247 142.358 50.4867C141.174 52.0616 140.581 53.8969 140.581 55.9925ZM138.375 87.3566C138.375 84.8835 139.039 82.6838 140.367 80.7574C141.707 78.831 143.549 77.3146 145.892 76.2082C148.235 75.1019 150.903 74.5487 153.897 74.5487C156.904 74.5487 159.572 75.1019 161.902 76.2083C164.245 77.3146 166.087 78.831 167.427 80.7574C168.768 82.6838 169.438 84.8835 169.438 87.3566C169.438 89.8297 168.768 92.0294 167.427 93.9558C166.087 95.8822 164.245 97.3985 161.902 98.5049C159.559 99.6113 156.891 100.164 153.897 100.164C150.903 100.164 148.235 99.6113 145.892 98.5049C143.549 97.3985 141.707 95.8822 140.367 93.9558C139.039 92.0294 138.375 89.8296 138.375 87.3566ZM140.581 87.3566C140.581 89.4522 141.174 91.2809 142.358 92.8429C143.543 94.4178 145.144 95.6349 147.161 96.4939C149.179 97.366 151.424 97.802 153.897 97.802C156.37 97.802 158.609 97.366 160.613 96.4939C162.631 95.6218 164.232 94.4048 165.416 92.8429C166.614 91.281 167.212 89.4522 167.212 87.3566C167.212 85.261 166.614 83.4322 165.416 81.8703C164.232 80.3083 162.631 79.0913 160.613 78.2192C158.609 77.3472 156.37 76.9111 153.897 76.9111C151.424 76.9111 149.179 77.3407 147.161 78.1997C145.144 79.0718 143.543 80.2888 142.358 81.8507C141.174 83.4257 140.581 85.261 140.581 87.3566ZM150.714 109.642L154.131 109.603L154.131 110.228L168.989 125.222L168.989 128.327L155.322 114.562L155.225 114.328L150.714 109.642ZM139 107.572L178.986 107.572L178.986 109.954L139 109.954L139 107.572ZM139 125.906L154.99 113.254L156.572 114.972L139 128.951L139 125.906Z" fill="white"/>
<rect x="3.18053" y="62.3611" width="126.455" height="65.8256" fill="white"/>
</svg>
